# xmcd
#
# Track frame offsets: 
#        150
#        31149
#        41442
#        58549
#        86608
#        100981
#        120378
#        132260
#        145618
#        159689
#        181952
#        196540
#        218417
#        235366
#
# Disc length: 3399 seconds
#
# Revision: 0
# Processed by: cddbd v1.5.2PL0 Copyright (c) Steve Scherf et al.
# Submitted via: ExactAudioCopy v0.99pb5
#
DISCID=af0d450e
DTITLE=Dan Treanor's Afrosippi Band - Tangled Road Again
DYEAR=2013
DGENRE=Blues
TTITLE0=Tangled Road
TTITLE1=Tell Me Daddy
TTITLE2=Hey Mister
TTITLE3=Nothing Can Take The Place Of You
TTITLE4=Dynamite
TTITLE5=I Want Love
TTITLE6=Bridges
TTITLE7=Your Going To Miss Me
TTITLE8=3 O'Clock In The Morning
TTITLE9=Ernestine
TTITLE10=Love Is Just For Fools
TTITLE11=Give Me My Roses
TTITLE12=Love Knot
TTITLE13=Wang Dang Doodle
EXTD=
EXTT0=
EXTT1=
EXTT2=
EXTT3=
EXTT4=
EXTT5=
EXTT6=
EXTT7=
EXTT8=
EXTT9=
EXTT10=
EXTT11=
EXTT12=
EXTT13=
PLAYORDER=
